<svg height="800" width="800" xmlns="http://www.w3.org/2000/svg" viewBox="0 0 512 512" xml:space="preserve"><path d="M495.304 311.652h-16.696V50.087C478.609 22.469 456.14 0 428.522 0H83.478C55.86 0 33.391 22.469 33.391 50.087v261.565H16.696C7.475 311.652 0 319.127 0 328.348v166.956C0 504.525 7.475 512 16.696 512h478.609c9.22 0 16.696-7.475 16.696-16.696V328.348c-.001-9.221-7.476-16.696-16.697-16.696zM66.783 50.087c0-9.206 7.49-16.696 16.696-16.696h345.043c9.206 0 16.696 7.49 16.696 16.696v261.565H66.783V50.087zm411.826 428.522H33.391V345.043h445.217v133.566z"/><path d="M294.957 378.435c-9.22 0-16.696 7.475-16.696 16.696v33.391c0 9.22 7.475 16.696 16.696 16.696s16.696-7.475 16.696-16.696V395.13c-.001-9.22-7.476-16.695-16.696-16.695zm66.782 0c-9.22 0-16.696 7.475-16.696 16.696v33.391c0 9.22 7.475 16.696 16.696 16.696s16.696-7.475 16.696-16.696V395.13c0-9.22-7.475-16.695-16.696-16.695zm66.783 0c-9.22 0-16.696 7.475-16.696 16.696v33.391c0 9.22 7.475 16.696 16.696 16.696s16.696-7.475 16.696-16.696V395.13c-.001-9.22-7.476-16.695-16.696-16.695zM228.174 395.13H83.478c-9.22 0-16.696 7.475-16.696 16.696 0 9.22 7.475 16.696 16.696 16.696h144.696c9.22 0 16.696-7.475 16.696-16.696 0-9.22-7.476-16.696-16.696-16.696zM395.13 66.783H116.87c-9.22 0-16.696 7.475-16.696 16.696v178.087c0 9.22 7.475 16.696 16.696 16.696h278.26c9.22 0 16.696-7.475 16.696-16.696V83.478c0-9.22-7.475-16.695-16.696-16.695zM378.435 244.87h-244.87V100.174h244.87V244.87z"/></svg>
