<?xml version="1.0" standalone="no"?>
<!DOCTYPE svg PUBLIC "-//W3C//DTD SVG 20010904//EN"
 "http://www.w3.org/TR/2001/REC-SVG-20010904/DTD/svg10.dtd">
<svg version="1.0" xmlns="http://www.w3.org/2000/svg"
 width="96.000000pt" height="96.000000pt" viewBox="0 0 96.000000 96.000000"
 preserveAspectRatio="xMidYMid meet">

<g transform="translate(0.000000,96.000000) scale(0.100000,-0.100000)"
fill="#000000" stroke="none">
<path d="M0 480 l0 -480 480 0 480 0 0 480 0 480 -480 0 -480 0 0 -480z m250
-95 l0 -205 -40 0 -40 0 0 160 c0 88 -3 160 -8 160 -4 0 -24 -11 -44 -25 -20
-14 -39 -25 -42 -25 -4 0 -6 17 -6 38 0 34 4 40 53 69 33 21 65 32 90 33 l37
0 0 -205z m280 0 l0 -205 -45 0 -45 0 0 160 c0 88 -3 160 -6 160 -3 0 -18 -8
-32 -18 -52 -36 -52 -36 -52 7 0 36 4 42 48 69 32 21 60 31 90 31 l42 1 0
-205z m290 90 c27 -14 60 -51 60 -66 0 -4 -16 -10 -35 -13 -27 -5 -39 -2 -55
14 -32 32 -86 22 -78 -15 2 -12 23 -22 72 -35 105 -26 133 -76 80 -139 -43
-52 -133 -63 -204 -26 -21 11 -50 51 -50 70 0 13 83 3 97 -11 23 -22 88 -15
88 10 0 12 -10 22 -25 26 -14 4 -44 13 -68 19 -74 21 -99 64 -71 125 23 50
127 73 189 41z"/>
</g>
</svg>
